<?xml version="1.0" encoding="UTF-8"?>
<svg xmlns="http://www.w3.org/2000/svg" xmlns:xlink="http://www.w3.org/1999/xlink" viewBox="0 0 30 30" width="30px" height="30px">
<g id="surface46600689">
<path style=" stroke:none;fill-rule:nonzero;fill:rgb(0%,0%,0%);fill-opacity:1;" d="M 15 1.800781 C 10.035156 1.800781 6 5.835938 6 10.800781 C 6 13.835938 7.15625 15.640625 8.25 16.894531 C 8.796875 17.523438 9.324219 18.027344 9.675781 18.488281 C 10.027344 18.945312 10.199219 19.316406 10.199219 19.800781 L 10.199219 25.800781 C 10.199219 26.785156 11.011719 27.601562 12 27.601562 L 12.695312 27.601562 C 12.960938 28.632812 13.890625 29.398438 15 29.398438 C 16.109375 29.398438 17.039062 28.632812 17.304688 27.601562 L 18 27.601562 C 18.988281 27.601562 19.800781 26.785156 19.800781 25.800781 L 19.800781 19.800781 C 19.800781 19.121094 20 18.652344 20.34375 18.167969 C 20.6875 17.683594 21.207031 17.199219 21.75 16.613281 C 22.835938 15.433594 24 13.777344 24 10.800781 C 24 5.835938 19.964844 1.800781 15 1.800781 Z M 15 3 C 19.316406 3 22.800781 6.484375 22.800781 10.800781 C 22.800781 13.480469 21.863281 14.707031 20.851562 15.804688 C 20.34375 16.355469 19.8125 16.855469 19.367188 17.476562 C 18.925781 18.097656 18.601562 18.863281 18.601562 19.800781 L 18.601562 22.800781 L 11.398438 22.800781 L 11.398438 19.800781 C 11.398438 18.992188 11.046875 18.324219 10.613281 17.757812 C 10.175781 17.1875 9.652344 16.683594 9.148438 16.105469 C 8.140625 14.949219 7.199219 13.542969 7.199219 10.800781 C 7.199219 6.484375 10.683594 3 15 3 Z M 12.542969 10.78125 C 12.519531 10.785156 12.492188 10.792969 12.46875 10.800781 C 12.242188 10.839844 12.0625 11.003906 12 11.222656 C 11.9375 11.441406 12.003906 11.675781 12.167969 11.832031 L 14.398438 14.0625 L 14.398438 21.601562 L 15.601562 21.601562 L 15.601562 14.0625 L 17.832031 11.832031 C 18.070312 11.59375 18.070312 11.207031 17.832031 10.96875 C 17.59375 10.730469 17.207031 10.730469 16.96875 10.96875 L 15 12.9375 L 13.03125 10.96875 C 12.90625 10.835938 12.726562 10.765625 12.542969 10.78125 Z M 11.398438 24 L 18.601562 24 L 18.601562 25.800781 C 18.601562 26.132812 18.332031 26.398438 18 26.398438 L 13.3125 26.398438 C 13.234375 26.382812 13.148438 26.382812 13.070312 26.398438 L 12 26.398438 C 11.667969 26.398438 11.398438 26.132812 11.398438 25.800781 Z M 13.96875 27.601562 L 16.03125 27.601562 C 15.824219 27.957031 15.449219 28.199219 15 28.199219 C 14.550781 28.199219 14.175781 27.957031 13.96875 27.601562 Z M 13.96875 27.601562 "/>
</g>
</svg>
